<mxfile host="65bd71144e">
    <diagram id="GH200_Architecture" name="GH200 GPU Architecture">
        <mxGraphModel dx="964" dy="644" grid="0" gridSize="10" guides="1" tooltips="1" connect="1" arrows="1" fold="1" page="1" pageScale="1" pageWidth="850" pageHeight="1100" background="#ffffff" math="0" shadow="0">
            <root>
                <mxCell id="0"/>
                <mxCell id="1" parent="0"/>
                <mxCell id="2" value="NVIDIA GH200 GPU" style="rounded=1;whiteSpace=wrap;html=1;fillColor=#dae8fc;strokeColor=#6c8ebf;fontSize=16;fontStyle=1;verticalAlign=top;spacingTop=15;shadow=0;glass=0;" parent="1" vertex="1">
                    <mxGeometry x="50" y="50" width="750" height="570" as="geometry"/>
                </mxCell>
                <mxCell id="3" value="Stream Multiprocessors (132 SM)" style="rounded=1;whiteSpace=wrap;html=1;fillColor=#d5e8d4;strokeColor=#82b366;fontSize:14;verticalAlign=top;align=center;spacingTop=4;" parent="1" vertex="1">
                    <mxGeometry x="80" y="100" width="501" height="199" as="geometry"/>
                </mxCell>
                <mxCell id="4" value="SM" style="rounded=1;whiteSpace=wrap;html=1;fillColor=#fff2cc;strokeColor=#d6b656;fontSize=12;" parent="1" vertex="1">
                    <mxGeometry x="100" y="130" width="60" height="60" as="geometry"/>
                </mxCell>
                <mxCell id="5" value="SM" style="rounded=1;whiteSpace=wrap;html=1;fillColor=#fff2cc;strokeColor=#d6b656;fontSize=12;" parent="1" vertex="1">
                    <mxGeometry x="170" y="130" width="60" height="60" as="geometry"/>
                </mxCell>
                <mxCell id="6" value="SM" style="rounded=1;whiteSpace=wrap;html=1;fillColor=#fff2cc;strokeColor=#d6b656;fontSize=12;" parent="1" vertex="1">
                    <mxGeometry x="240" y="130" width="60" height="60" as="geometry"/>
                </mxCell>
                <mxCell id="7" value="..." style="text;html=1;strokeColor=none;fillColor=none;align=center;verticalAlign=middle;whiteSpace=wrap;rounded=0;fontSize=16;fontStyle=1" parent="1" vertex="1">
                    <mxGeometry x="310" y="145" width="40" height="30" as="geometry"/>
                </mxCell>
                <mxCell id="8" value="SM" style="rounded=1;whiteSpace=wrap;html=1;fillColor=#fff2cc;strokeColor=#d6b656;fontSize=12;" parent="1" vertex="1">
                    <mxGeometry x="360" y="130" width="60" height="60" as="geometry"/>
                </mxCell>
                <mxCell id="9" value="SM" style="rounded=1;whiteSpace=wrap;html=1;fillColor=#fff2cc;strokeColor=#d6b656;fontSize=12;" parent="1" vertex="1">
                    <mxGeometry x="430" y="130" width="60" height="60" as="geometry"/>
                </mxCell>
                <mxCell id="10" value="SM" style="rounded=1;whiteSpace=wrap;html=1;fillColor=#fff2cc;strokeColor=#d6b656;fontSize=12;" parent="1" vertex="1">
                    <mxGeometry x="500" y="130" width="60" height="60" as="geometry"/>
                </mxCell>
                <mxCell id="11" value="SM" style="rounded=1;whiteSpace=wrap;html=1;fillColor=#fff2cc;strokeColor=#d6b656;fontSize=12;" parent="1" vertex="1">
                    <mxGeometry x="100" y="210" width="60" height="60" as="geometry"/>
                </mxCell>
                <mxCell id="12" value="SM" style="rounded=1;whiteSpace=wrap;html=1;fillColor=#fff2cc;strokeColor=#d6b656;fontSize=12;" parent="1" vertex="1">
                    <mxGeometry x="170" y="210" width="60" height="60" as="geometry"/>
                </mxCell>
                <mxCell id="13" value="..." style="text;html=1;strokeColor=none;fillColor=none;align=center;verticalAlign=middle;whiteSpace=wrap;rounded=0;fontSize=16;fontStyle=1" parent="1" vertex="1">
                    <mxGeometry x="240" y="225" width="320" height="30" as="geometry"/>
                </mxCell>
                <mxCell id="104" value="Work Distributor &amp; Scheduler" style="rounded=1;whiteSpace=wrap;html=1;fillColor=#f8cecc;strokeColor=#b85450;fontSize=14;fontStyle=1;verticalAlign=middle;" parent="1" vertex="1">
                    <mxGeometry x="80" y="330" width="690" height="40" as="geometry"/>
                </mxCell>
                <mxCell id="14" value="L2 Cache (up to 50MB)" style="rounded=1;whiteSpace=wrap;html=1;fillColor=#e1d5e7;strokeColor=#9673a6;fontSize=14;" parent="1" vertex="1">
                    <mxGeometry x="80" y="388" width="690" height="60" as="geometry"/>
                </mxCell>
                <mxCell id="15" value="HBM3 Memory (80GB), HBM3e (141GB)" style="rounded=1;whiteSpace=wrap;html=1;fillColor=#f8cecc;strokeColor=#b85450;fontSize=14;" parent="1" vertex="1">
                    <mxGeometry x="80" y="467" width="690" height="60" as="geometry"/>
                </mxCell>
                <mxCell id="17" value="Memory Controllers" style="rounded=1;whiteSpace=wrap;html=1;fillColor=#fff2cc;strokeColor=#d6b656;fontSize=14;" parent="1" vertex="1">
                    <mxGeometry x="80" y="547" width="690" height="40" as="geometry"/>
                </mxCell>
                <mxCell id="18" value="" style="endArrow=classic;startArrow=classic;html=1;rounded=0;exitX=0.5;exitY=0;exitDx=0;exitDy=0;entryX=0.5;entryY=1;entryDx=0;entryDy=0;" parent="1" source="104" target="3" edge="1">
                    <mxGeometry width="50" height="50" relative="1" as="geometry">
                        <mxPoint x="425" y="340" as="sourcePoint"/>
                        <mxPoint x="350" y="320" as="targetPoint"/>
                    </mxGeometry>
                </mxCell>
                <mxCell id="105" value="" style="endArrow=classic;startArrow=classic;html=1;rounded=0;exitX=0.5;exitY=0;exitDx=0;exitDy=0;entryX=0.5;entryY=1;entryDx=0;entryDy=0;" parent="1" source="14" target="104" edge="1">
                    <mxGeometry width="50" height="50" relative="1" as="geometry">
                        <mxPoint x="400" y="430" as="sourcePoint"/>
                        <mxPoint x="450" y="380" as="targetPoint"/>
                    </mxGeometry>
                </mxCell>
                <mxCell id="19" value="" style="endArrow=classic;startArrow=classic;html=1;rounded=0;exitX=0.5;exitY=0;exitDx=0;exitDy=0;entryX=0.5;entryY=1;entryDx=0;entryDy=0;" parent="1" source="15" target="14" edge="1">
                    <mxGeometry width="50" height="50" relative="1" as="geometry">
                        <mxPoint x="400" y="430" as="sourcePoint"/>
                        <mxPoint x="450" y="380" as="targetPoint"/>
                    </mxGeometry>
                </mxCell>
                <mxCell id="20" value="" style="endArrow=classic;startArrow=classic;html=1;rounded=0;exitX=0.5;exitY=0;exitDx=0;exitDy=0;entryX=0.5;entryY=1;entryDx=0;entryDy=0;" parent="1" source="17" target="15" edge="1">
                    <mxGeometry width="50" height="50" relative="1" as="geometry">
                        <mxPoint x="400" y="500" as="sourcePoint"/>
                        <mxPoint x="450" y="450" as="targetPoint"/>
                    </mxGeometry>
                </mxCell>
                <mxCell id="21" value="" style="endArrow=classic;startArrow=classic;html=1;rounded=0;exitX=1;exitY=0.5;exitDx=0;exitDy=0;entryX=0;entryY=0.5;entryDx=0;entryDy=0;" parent="1" source="3" target="100" edge="1">
                    <mxGeometry width="50" height="50" relative="1" as="geometry">
                        <mxPoint x="600" y="250" as="sourcePoint"/>
                        <mxPoint x="640" y="210" as="targetPoint"/>
                    </mxGeometry>
                </mxCell>
                <mxCell id="106" value="" style="endArrow=classic;startArrow=classic;html=1;rounded=0;exitX=0.5;exitY=1;exitDx=0;exitDy=0;entryX=1;entryY=0.5;entryDx=0;entryDy=0;" parent="1" source="100" target="104" edge="1">
                    <mxGeometry width="50" height="50" relative="1" as="geometry">
                        <mxPoint x="400" y="430" as="sourcePoint"/>
                        <mxPoint x="450" y="380" as="targetPoint"/>
                        <Array as="points">
                            <mxPoint x="705" y="350"/>
                        </Array>
                    </mxGeometry>
                </mxCell>
                <mxCell id="110" value="実行管理" style="text;html=1;strokeColor=none;fillColor=none;align=center;verticalAlign=middle;whiteSpace=wrap;rounded=0;fontSize=12;fontStyle=1" parent="1" vertex="1">
                    <mxGeometry x="374" y="299" width="90" height="30" as="geometry"/>
                </mxCell>
                <mxCell id="111" value="" style="group" vertex="1" connectable="0" parent="1">
                    <mxGeometry x="610" y="64" width="160" height="256" as="geometry"/>
                </mxCell>
                <mxCell id="100" value="Host Interface &amp; Command Processing" style="rounded=1;whiteSpace=wrap;html=1;fillColor=#ffe6cc;strokeColor=#d79b00;fontSize=14;fontStyle=1;verticalAlign=top;spacingTop=5;" parent="111" vertex="1">
                    <mxGeometry x="5.925925925925926" width="154.07407407407408" height="256" as="geometry"/>
                </mxCell>
                <mxCell id="16" value="NVLink-C2C / PCIe Gen5" style="rounded=1;whiteSpace=wrap;html=1;fillColor=#fff2cc;strokeColor=#d6b656;fontSize=12;" parent="111" vertex="1">
                    <mxGeometry x="17.77777777777778" y="66" width="130.37037037037038" height="40" as="geometry"/>
                </mxCell>
                <mxCell id="101" value="Command Processor" style="rounded=1;whiteSpace=wrap;html=1;fillColor=#fff2cc;strokeColor=#d6b656;fontSize=12;" parent="111" vertex="1">
                    <mxGeometry x="17.77777777777778" y="116" width="130.37037037037038" height="40" as="geometry"/>
                </mxCell>
                <mxCell id="102" value="Hardware Queues" style="rounded=1;whiteSpace=wrap;html=1;fillColor=#fff2cc;strokeColor=#d6b656;fontSize=12;" parent="111" vertex="1">
                    <mxGeometry x="17.77777777777778" y="166" width="130.37037037037038" height="40" as="geometry"/>
                </mxCell>
                <mxCell id="103" value="GigaThread Engine" style="rounded=1;whiteSpace=wrap;html=1;fillColor=#fff2cc;strokeColor=#d6b656;fontSize=12;" parent="111" vertex="1">
                    <mxGeometry x="17.77777777777778" y="216" width="130.37037037037038" height="30" as="geometry"/>
                </mxCell>
                <mxCell id="108" value="制御フロー" style="text;html=1;strokeColor=none;fillColor=none;align=center;verticalAlign=middle;whiteSpace=wrap;rounded=0;fontSize=10;" parent="111" vertex="1">
                    <mxGeometry y="236" width="71.11111111111111" height="20" as="geometry"/>
                </mxCell>
                <mxCell id="107" value="" style="endArrow=classic;html=1;rounded=0;dashed=1;entryX=0.5;entryY=1;entryDx=0;entryDy=0;exitX=0.75;exitY=0;exitDx=0;exitDy=0;" parent="1" source="104" target="103" edge="1">
                    <mxGeometry width="50" height="50" relative="1" as="geometry">
                        <mxPoint x="400" y="430" as="sourcePoint"/>
                        <mxPoint x="450" y="380" as="targetPoint"/>
                        <Array as="points">
                            <mxPoint x="600" y="320"/>
                            <mxPoint x="695" y="320"/>
                        </Array>
                    </mxGeometry>
                </mxCell>
                <mxCell id="109" value="データフロー" style="text;html=1;strokeColor=none;fillColor=#E6E6E6;align=center;verticalAlign=middle;whiteSpace=wrap;rounded=0;fontSize=12;fontStyle=1" parent="1" vertex="1">
                    <mxGeometry x="570" y="212" width="90" height="21" as="geometry"/>
                </mxCell>
            </root>
        </mxGraphModel>
    </diagram>
</mxfile>